<?xml version="1.0" encoding="utf-8"?>
<!-- Generator: Adobe Illustrator 21.0.2, SVG Export Plug-In . SVG Version: 6.00 Build 0)  -->
<svg version="1.1" baseProfile="tiny" id="Layer_1" xmlns="http://www.w3.org/2000/svg" xmlns:xlink="http://www.w3.org/1999/xlink"
	 x="0px" y="0px" viewBox="0 0 187 104" xml:space="preserve">
<g>
	<polyline fill="none" stroke="#FFFFFF" stroke-width="2" stroke-miterlimit="10" points="1.6,90.9 25.9,103.7 169.8,103.7 
		169.8,12.9 153.7,1.5 142.2,76 0.9,90.9 	"/>
	<g>
		<path fill="#FFFFFF" d="M63.3,34.9c0-3.2-2-4.5-6.4-4.5h-3.2v9.6h3.1C61.4,40.1,63.3,38,63.3,34.9z"/>
		<path fill="#FFFFFF" d="M57.8,46.6h-4v11h4c5,0,7.4-2,7.4-5.7C65.2,48.2,62.9,46.6,57.8,46.6z"/>
		<path fill="#FFFFFF" d="M0.2,0v90.8h154.3V0H0.2z M58.5,64.8h-14V23.3h12.8c8.5,0,15,2.3,15,10.3c0,3.7-2.2,7.7-7.1,9v0.3
			c5.9,1.1,8.9,4.2,8.9,9.8C74.3,61,67.4,64.8,58.5,64.8z M112.5,64.8h-7.5V51c0-4.5,0.8-14.2,1.2-18.6H106l-3.3,11.3l-3.8,10.1
			h-4.2l-3.9-10.1l-3.3-11.3h-0.3c0.4,4.4,1.2,14.1,1.2,18.6v13.9h-7.4V23.3h9.3L95.2,38l1.6,5.8H97l1.6-5.8l4.7-14.8h9.3V64.8z"/>
	</g>
</g>
</svg>
