<?xml version="1.0" encoding="utf-8"?>
<!-- Generator: Adobe Illustrator 21.0.2, SVG Export Plug-In . SVG Version: 6.00 Build 0)  -->
<svg version="1.1" baseProfile="tiny" id="Layer_1" xmlns="http://www.w3.org/2000/svg" xmlns:xlink="http://www.w3.org/1999/xlink"
	 x="0px" y="0px" viewBox="0 0 565 104" xml:space="preserve">
<g>
	<polyline fill="none" stroke="#FFFFFF" stroke-width="2" stroke-miterlimit="10" points="1.6,90.9 25.9,103.7 169.8,103.7 
		169.8,12.9 153.7,1.5 142.2,76 0.9,90.9 	"/>
	<g>
		<path fill="#FFFFFF" d="M63.3,34.9c0-3.2-2-4.5-6.4-4.5h-3.2v9.6h3.1C61.4,40.1,63.3,38,63.3,34.9z"/>
		<path fill="#FFFFFF" d="M57.8,46.6h-4v11h4c5,0,7.4-2,7.4-5.7C65.2,48.2,62.9,46.6,57.8,46.6z"/>
		<path fill="#FFFFFF" d="M0.2,0v90.8h154.3V0H0.2z M58.5,64.8h-14V23.3h12.8c8.5,0,15,2.3,15,10.3c0,3.7-2.2,7.7-7.1,9v0.3
			c5.9,1.1,8.9,4.2,8.9,9.8C74.3,61,67.4,64.8,58.5,64.8z M112.5,64.8h-7.5V51c0-4.5,0.8-14.2,1.2-18.6H106l-3.3,11.3l-3.8,10.1
			h-4.2l-3.9-10.1l-3.3-11.3h-0.3c0.4,4.4,1.2,14.1,1.2,18.6v13.9h-7.4V23.3h9.3L95.2,38l1.6,5.8H97l1.6-5.8l4.7-14.8h9.3V64.8z"/>
	</g>
</g>
<g>
	<path fill="#FFFFFF" d="M214.2,29.1h13.4c8.9,0,15.7,2.4,15.7,10.8c0,3.9-2.3,8-7.4,9.4v0.3c6.1,1.1,9.3,4.3,9.3,10.2
		c0,8.8-7.2,12.8-16.5,12.8h-14.7V29.1z M227.2,46.7c4.7,0,6.7-2.1,6.7-5.4c0-3.4-2.1-4.7-6.6-4.7h-3.4v10.1H227.2z M228.1,65.1
		c5.3,0,7.8-2,7.8-6c0-3.9-2.4-5.5-7.8-5.5h-4.2v11.5H228.1z"/>
	<path fill="#FFFFFF" d="M258.8,62.4V41.3h-7.4v-6h15v27.4c0,3.2,2,4.3,4.1,4.3c1.2,0,2.4-0.2,4-0.9l1.7,5.6
		c-2.7,0.9-4.5,1.4-7.7,1.4C262.1,73.2,258.8,69,258.8,62.4z"/>
	<path fill="#FFFFFF" d="M282.3,62.5V46.3h7.6v15.2c0,3.6,0.9,5.2,3.7,5.2c1.9,0,3.2-0.7,5-3.1V46.3h7.6v26.3h-6.2l-0.6-3.8h-0.2
		c-2.3,2.7-4.9,4.4-8.6,4.4C284.7,73.2,282.3,69.2,282.3,62.5z"/>
	<path fill="#FFFFFF" d="M312.8,59.4c0-8.6,6.5-13.8,13.3-13.8c7.9,0,12,5.5,12,12.6c0,1.3-0.2,2.7-0.3,3.4h-17.2
		c0.5,4,3.7,5.8,7.4,5.8c2.3,0,4.3-0.6,6.6-1.9l2.5,4.6c-2.9,1.9-6.7,3-10.1,3C319,73.2,312.8,68.1,312.8,59.4z M331.2,56.6
		c0-3.1-1.5-5.1-5-5.1c-2.7,0-5.1,1.6-5.8,5.1H331.2z"/>
	<path fill="#FFFFFF" d="M376,29.1h9.7l5,15.5l1.7,6.1h0.2l1.6-6.1l4.9-15.5h9.7v43.4h-7.8V58.1c0-4.7,0.8-14.9,1.3-19.5h-0.3
		l-3.5,11.8l-4,10.5h-4.3l-4.1-10.5l-3.4-11.8h-0.3c0.5,4.6,1.3,14.7,1.3,19.5v14.5H376V29.1z"/>
	<path fill="#FFFFFF" d="M416.4,65.3c0-5.9,4.7-8.9,16.8-9.6c-0.3-2.5-2-4-5.5-4c-2.5,0-4.9,1-6.7,2.5l-2.7-4.9
		c2.5-2.1,6.5-3.6,10.9-3.6c7.2,0,11.5,3.9,11.5,11.8v15.1h-6.2l-0.6-3h-0.2c-2.6,2-5.8,3.6-9.1,3.6
		C419.6,73.2,416.4,69.7,416.4,65.3z M433.2,64.7v-4.5c-7.5,0.5-9.6,2.2-9.6,4.5c0,1.8,1.4,2.6,3.6,2.6
		C429.5,67.3,431.4,66.2,433.2,64.7z"/>
	<path fill="#FFFFFF" d="M450.1,46.3h6.2l0.6,5.8h0.2c2.5-4.3,6.3-6.4,10.4-6.4c2.3,0,3.5,0.4,4.9,1.1l-1.5,6.3
		c-1.6-0.5-2.6-0.8-4.5-0.8c-3.1,0-6.4,1.8-8.6,6.5v13.8h-7.6V46.3z"/>
	<path fill="#FFFFFF" d="M479,35.3h7.6v21.8h0.2l9.4-10.8h8.3l-9.7,10.8l10.5,15.5H497l-6.7-10.9l-3.8,4.2v6.6H479V35.3z"/>
	<path fill="#FFFFFF" d="M508.8,59.4c0-8.6,6.5-13.8,13.3-13.8c7.9,0,12,5.5,12,12.6c0,1.3-0.2,2.7-0.3,3.4h-17.2
		c0.5,4,3.7,5.8,7.4,5.8c2.3,0,4.3-0.6,6.6-1.9l2.5,4.6c-2.9,1.9-6.7,3-10.1,3C515,73.2,508.8,68.1,508.8,59.4z M527.2,56.6
		c0-3.1-1.5-5.1-5-5.1c-2.7,0-5.1,1.6-5.8,5.1H527.2z"/>
	<path fill="#FFFFFF" d="M545.8,61.7v-9.5h-6.4v-5.9h6.8v-7.7l7.2-3.1v10.8h10.8v5.9h-10.8v9.4c0,4,1.6,5.6,5.4,5.6
		c2,0,3.6-0.4,5.1-1l1.3,5.5c-2.3,0.7-5,1.4-8.3,1.4C548.7,73.2,545.8,68.6,545.8,61.7z"/>
</g>
</svg>
